<?xml version="1.0" encoding="utf-8"?>
<!-- Generator: Adobe Illustrator 28.1.0, SVG Export Plug-In . SVG Version: 6.00 Build 0)  -->
<svg version="1.1"
	 id="katman_1" shape-rendering="geometricPrecision" image-rendering="optimizeQuality" text-rendering="geometricPrecision"
	 xmlns="http://www.w3.org/2000/svg" xmlns:xlink="http://www.w3.org/1999/xlink" x="0px" y="0px" viewBox="0 0 8192 8192"
	 style="enable-background:new 0 0 8192 8192;" xml:space="preserve">
<style type="text/css">
	.st0{fill-rule:evenodd;clip-rule:evenodd;fill:#DCA958;}
</style>
<path class="st0" d="M4096,0c2262.2,0,4096,1833.8,4096,4096S6358.2,8192,4096,8192S0,6358.2,0,4096S1833.8,0,4096,0z
	 M6067.5,2241.4l-730.8,3684.4c0,0-102.2,255.5-383.2,132.8L3272.2,4735.1c0,0,1870.3-1681.2,1947-1752.8
	c76.7-71.5,51.1-86.9,51.1-86.9c5.1-86.9-138,0-138,0L2653.9,4469.5L1621.7,4122c0,0-158.4-56.2-173.7-178.8
	c-15.3-122.7,178.8-189.1,178.8-189.1l4103.4-1609.7C5730.2,2144.4,6067.5,1996.2,6067.5,2241.4z M3913.7,5261.6l-667,608.1
	c0,0-52.2,39.5-109.2,14.8l127.7-1129.6L3913.7,5261.6z"/>
</svg>
