<?xml version="1.0" encoding="UTF-8"?>
<svg id="katman_1" data-name="katman 1" xmlns="http://www.w3.org/2000/svg" version="1.1" viewBox="0 0 8192 8192">
  <defs>
    <style>
      .cls-1 {
        fill: #dca958;
        fill-rule: evenodd;
        stroke-width: 0px;
      }
    </style>
  </defs>
  <g id="katman_1-2" data-name="katman 1" image-rendering="optimizeQuality" shape-rendering="geometricPrecision" text-rendering="geometricPrecision">
    <g>
      <path class="cls-1" d="M5044.4,3542.1l-1523.1,1521c44.4,28.5,91.5,53.9,141.2,76.5,133.9,60.8,279.9,91.1,438.1,91.1s303.4-29.6,435.8-88.8c132.4-59.3,245.7-139.8,340-241.6,94.3-101.8,168.1-221.7,221.3-359.9,53.2-138.3,79.8-284.9,79.8-439.8s-26.6-301.6-79.8-439.8c-15.9-41.2-33.6-80.8-53.2-118.8h0Z"/>
      <path class="cls-1" d="M4529.4,3052.5c-133.8-60.8-279.8-91.2-438.1-91.2s-303.4,29.6-435.8,88.8c-132.3,59.3-245.7,139.7-340,241.5s-168.1,221.8-221.3,360-79.8,284.8-79.8,439.8,26.6,301.5,79.8,439.7c15.9,41.1,33.6,80.8,53.3,118.8l1523.2-1521.1c-44.5-28.4-91.6-53.9-141.3-76.4h0Z"/>
      <path class="cls-1" d="M4096,628c-1915.4,0-3468,1552.7-3468,3468s1552.7,3468,3468,3468,3468-1552.7,3468-3468S6011.4,628,4096,628ZM5642.9,3453.5c82.2,200.6,123.2,413.2,123.2,638.1s-41.1,437.4-123.2,637.9-197.7,376-346.8,526.3c-149.1,150.5-325.5,269.7-529.3,357.8-203.9,88-429,132.1-675.4,132.1s-471.5-43.3-675.3-129.9c-104.4-44.3-201.3-96.8-290.5-157.6l-993.6,992.3-393.7-393.1,990.6-989.2c-71.2-100.8-131.1-210.6-179.9-329.6-82.1-200.6-123.2-413.2-123.2-638s41.1-437.5,123.2-638c82.1-200.5,197.8-376,346.8-526.3,149.1-150.4,325.5-269.6,529.4-357.7,203.8-88.1,428.9-132.2,675.4-132.2s471.5,43.3,675.3,129.9c104.4,44.3,201.3,96.8,290.5,157.6l993.7-992.3,393.7,393.1-990.7,989.3c71.2,100.8,131.1,210.6,179.9,329.5h-.1Z"/>
      <path class="cls-1" d="M4096,0C1833.8,0,0,1833.8,0,4096s1833.8,4096,4096,4096,4096-1833.8,4096-4096S6358.2,0,4096,0ZM4096,7788.4c-2039.3,0-3692.4-1653.1-3692.4-3692.4S2056.7,403.6,4096,403.6s3692.4,1653.1,3692.4,3692.4-1653.1,3692.4-3692.4,3692.4Z"/>
    </g>
  </g>
</svg>