<?xml version="1.0" encoding="utf-8"?>
<!-- Generator: Adobe Illustrator 28.1.0, SVG Export Plug-In . SVG Version: 6.00 Build 0)  -->
<svg version="1.1" id="katman_1" xmlns="http://www.w3.org/2000/svg" xmlns:xlink="http://www.w3.org/1999/xlink" x="0px" y="0px"
	 viewBox="0 0 500 500" style="enable-background:new 0 0 500 500;" xml:space="preserve">
<style type="text/css">
	.st0{fill:#DCA958;}
</style>
<g>
	<path class="st0" d="M407.7,167.4l-67,3.9c-9.7,1-17.5,8.7-15.5,19.4l25.2,2.9v134.1l-99-151.6l-71.8,4.8
		c-13.6,1-18.4,13.6-16.5,22.4l24.3,2v191.5l-17.5,4.9c-6.8,1.9-8.7,11.6-6.8,15.5l66.9-3.9c24.3,0,24.3-17.5,24.3-17.5l-30.1-6.8
		V244.2l95.1,149.7c11.6,14.6,15.5,19.4,31,19.4c9.7,0,21.3-3.9,34-10.7V188.8l14.5-2.9C407.7,184.9,409.7,176.1,407.7,167.4
		L407.7,167.4z"/>
	<path class="st0" d="M472.1,79.5l-90.5-63.8C360.2,0.2,351.4-1.8,317.5,1.1l0,0L40.8,21.6c-22.3,1.9-30.1,16.5-30.1,34v303.3
		c0,13.6,4.8,25.3,16.5,40.8l65,84.6c10.7,13.6,20.4,16.5,40.8,15.6l321.3-19.4c27.2-1.9,34.9-14.6,34.9-36V103.2
		C489.3,92.2,484.9,89,472.1,79.5z M93.2,87.7L55.4,57.5c-3.9-3.9-1.9-8.8,7.8-9.7l266-19.4c22.3-1.9,34,5.8,42.7,12.6l45.6,33
		c2,1,6.8,6.8,1,6.8L143.7,97.4l-3.4,0.2l0,0C114.1,99.4,108.1,99.8,93.2,87.7z M456.2,420.1c0,12.6-2,23.3-19.4,24.3L135,461.9
		c-17.5,1-25.2-4.8-25.2-20.4l0,0V151.8c0-12.6,3.9-18.5,15.5-19.5l315.5-18.5c10.7-1,15.5,5.8,15.5,18.5L456.2,420.1L456.2,420.1z"
		/>
</g>
</svg>
