<?xml version="1.0" encoding="utf-8"?>
<!-- Generator: Adobe Illustrator 28.1.0, SVG Export Plug-In . SVG Version: 6.00 Build 0)  -->
<svg version="1.1" id="katman_1" xmlns="http://www.w3.org/2000/svg" xmlns:xlink="http://www.w3.org/1999/xlink" x="0px" y="0px"
	 viewBox="0 0 96 96" style="enable-background:new 0 0 96 96;" xml:space="preserve">
<style type="text/css">
	.st0{clip-path:url(#SVGID_00000168099851699257911300000008250588592824395435_);fill:#DCA958;}
</style>
<g>
	<defs>
		<rect id="SVGID_1_" width="96" height="96"/>
	</defs>
	<clipPath id="SVGID_00000067929686993605949610000008155364638949674678_">
		<use xlink:href="#SVGID_1_"  style="overflow:visible;"/>
	</clipPath>
	<path style="clip-path:url(#SVGID_00000067929686993605949610000008155364638949674678_);fill:#DCA958;" d="M48,0
		C21.5,0,0,21.5,0,48s21.5,48,48,48s48-21.5,48-48S74.5,0,48,0z M45.6,49.4c-0.2,0.4-0.5,0.8-0.8,1.2L24.9,70.1
		c-0.2,0.2-0.4,0.3-0.7,0.4c-0.3,0.1-0.5,0.2-0.8,0.2c-0.3,0-0.5-0.1-0.8-0.2c-0.3-0.1-0.5-0.3-0.7-0.4l-1.2-1.2
		c-0.2-0.2-0.3-0.4-0.5-0.7c-0.1-0.2-0.2-0.5-0.2-0.8c0-0.3,0.1-0.5,0.2-0.8c0.1-0.2,0.3-0.5,0.5-0.7L37,50c0.5-0.5,0.8-1.2,0.8-2
		c0-0.7-0.3-1.5-0.8-2L20.8,30c-0.2-0.2-0.4-0.4-0.5-0.7c-0.1-0.2-0.2-0.5-0.2-0.8c0-0.3,0.1-0.5,0.2-0.8c0.1-0.3,0.3-0.5,0.5-0.7
		l1.2-1.2c0.3-0.3,0.8-0.6,1.3-0.6c0.3,0,0.6,0,0.9,0.1c0.3,0.1,0.6,0.3,0.8,0.5l19.9,19.5c0.3,0.3,0.6,0.7,0.8,1.2
		c0.2,0.4,0.3,0.9,0.3,1.4C45.9,48.5,45.8,49,45.6,49.4z M75.7,68.2c-0.1,0.2-0.3,0.5-0.4,0.7l-1.2,1.2c-0.3,0.3-0.8,0.6-1.3,0.6
		c-0.3,0-0.6,0-0.9-0.1c-0.3-0.1-0.6-0.3-0.8-0.5L51.2,50.6c-0.3-0.3-0.6-0.7-0.8-1.2s-0.3-0.9-0.3-1.4s0.1-1,0.3-1.4
		s0.5-0.8,0.8-1.2l19.9-19.5c0.2-0.2,0.4-0.3,0.7-0.4c0.3-0.1,0.5-0.2,0.8-0.2c0.3,0,0.5,0.1,0.8,0.2c0.3,0.1,0.5,0.3,0.7,0.4
		l1.2,1.2c0.2,0.2,0.3,0.4,0.5,0.7c0.1,0.2,0.2,0.5,0.2,0.8c0,0.3-0.1,0.5-0.2,0.8c-0.1,0.2-0.3,0.5-0.5,0.7L58.9,46
		c-0.5,0.5-0.8,1.2-0.8,2c0,0.7,0.3,1.5,0.8,2l16.3,16c0.2,0.2,0.4,0.4,0.5,0.7c0.1,0.2,0.2,0.5,0.2,0.8S75.8,68,75.7,68.2z"/>
</g>
</svg>
