<?xml version="1.0" encoding="UTF-8"?><svg id="katman_1" xmlns="http://www.w3.org/2000/svg" viewBox="0 0 8192 8192"><defs><style>.cls-1{fill:#dca958;stroke-width:0px;}</style></defs><path class="cls-1" d="M7970.51,7390.06l-568.35,568.35c-156.11,155.19-408.24,155.19-564.35,0L2082.88,3211.49c-130.16,37.71-264.76,57.9-400.25,60.04-884.2-.63-1600.48-717.93-1599.84-1602.13.13-176.67,29.49-352.1,86.91-519.18l1016.63,1016.63,212.13-212.13,568.35-568.35,212.13-212.13L1162.32,157.6c836.2-287.37,1747.03,157.55,2034.4,993.75,57.42,167.08,86.78,342.51,86.91,519.18-2.14,135.49-22.33,270.09-60.04,400.25l4746.93,4754.93c155.19,156.11,155.19,408.24,0,564.35M197.72,6825.72c-155.19,156.11-155.19,408.24,0,564.35l568.35,568.35c156.11,155.19,408.24,155.19,564.35,0l2189.35-2185.35-1132.7-1132.7M7286.09,69.55l-1600.99,800.49v800.49l-868.54,868.54,800.49,800.49,868.54-868.54h800.49l800.49-1600.99-800.49-800.49Z"/></svg>